# xmcd
#
# Track frame offsets:
#	150
#	36431
#	65966
#	86210
#
# Disc length: 1498 seconds
#
# Revision: 1
# Processed by: cddbd v1.5.2PL0 Copyright (c) Steve Scherf et al.
# Submitted via: audiograbber 1.83.01
#
DISCID=3a05d804
DTITLE=Various Artist - Sol Party - Heikki L. Summersampler
DYEAR=2008
DGENRE=House
TTITLE0=Heikki L Feat. Mija Permanto - Rising Sun (Original Mix)
TTITLE1=Ercola and Heikki L - Deep At Night (Original Mix)
TTITLE2=Soultronics - Music (Original Mix)
TTITLE3=Jussi Polet - Positive (Supermodels From Paris Remix)
EXTD=TR.
EXTT0=
EXTT1=
EXTT2=
EXTT3=
PLAYORDER=
